<svg width="142" height="39" viewBox="0 0 142 39" fill="none" xmlns="http://www.w3.org/2000/svg">
<g clip-path="url(#clip0)">
<path d="M5.64622 14.7546H3.05566V20.3867H5.64622V14.7546Z" fill="#002B49"/>
<path d="M11.2244 2.5886C11.3037 2.58748 11.3819 2.60682 11.4515 2.64475C11.5211 2.68268 11.5797 2.73793 11.6218 2.80514L14.3693 7.04658C15.2294 6.6978 16.1421 6.49632 17.0691 6.4506L13.7951 1.39662C13.5171 0.9682 13.1364 0.616088 12.6876 0.372318C12.2388 0.128547 11.7362 0.000854492 11.2254 0.000854492C10.7147 0.000854492 10.2121 0.128547 9.76328 0.372318C9.31448 0.616088 8.93375 0.9682 8.65573 1.39662L0 14.7547H3.05344L10.8271 2.80514C10.8691 2.73793 10.9278 2.68268 10.9974 2.64475C11.067 2.60682 11.1452 2.58748 11.2244 2.5886Z" fill="#002B49"/>
<path d="M23.8975 14.7548H21.3149C21.2921 13.7496 20.8767 12.7933 20.1577 12.0904C19.4387 11.3876 18.4732 10.9941 17.4678 10.9941C16.4624 10.9941 15.4969 11.3876 14.7779 12.0904C14.0589 12.7933 13.6435 13.7496 13.6207 14.7548H11.0381C11.0381 13.0519 11.7146 11.4187 12.9187 10.2146C14.1228 9.01046 15.756 8.33398 17.4589 8.33398C19.1618 8.33398 20.7949 9.01046 21.999 10.2146C23.2032 11.4187 23.8796 13.0519 23.8796 14.7548H23.8975Z" fill="#00A6A0"/>
<path d="M10.5547 22.9614V20.3887C12.0485 20.3871 13.4806 19.793 14.5368 18.7368C15.5931 17.6805 16.1872 16.2484 16.1888 14.7546H18.7714C18.7693 16.9323 17.9026 19.02 16.3618 20.5589C14.8211 22.0978 12.7323 22.9619 10.5547 22.9614Z" fill="#002B49"/>
<path d="M34.2355 33.9057C34.2355 35.8029 33.1885 37.0128 31.6171 37.0128C30.6238 37.0128 29.9404 36.5479 29.6305 35.9182V36.8857H28.4385V28.6094H29.6722V31.9668C30.0099 31.2337 30.7668 30.8264 31.6866 30.8264C33.2342 30.8324 34.2355 32.0423 34.2355 33.9057ZM33.0018 33.9514C33.0018 32.7594 32.3382 31.939 31.325 31.939C30.3119 31.939 29.6146 32.7535 29.6146 33.9514C29.6146 35.1493 30.3119 35.9659 31.325 35.9659C32.3382 35.9659 33.0018 35.1633 33.0018 33.9534V33.9514Z" fill="#00A6A0"/>
<path d="M40.3003 30.9496L37.809 37.4796C37.4832 38.3279 36.7045 38.7948 35.6099 38.7948H35.1311V37.7458H35.5503C36.1681 37.7458 36.6449 37.4896 36.8197 37.0008L36.8674 36.8618L34.5391 30.9496H35.8304L37.4495 35.4076L39.0547 30.9496H40.3003Z" fill="#00A6A0"/>
<path d="M48.7639 36.8856L46.67 33.5322H45.0489V36.8856H43.7695V28.7405H47.0356C48.6249 28.7405 49.7135 29.6841 49.7135 31.0569C49.7185 31.5686 49.5514 32.0671 49.239 32.4724C48.9267 32.8777 48.4872 33.1663 47.9911 33.2918L50.2479 36.8896L48.7639 36.8856ZM48.4262 31.1006C48.4262 30.3894 47.9037 29.9364 47.111 29.9364H45.0489V32.3641H46.9819C47.8302 32.3641 48.4262 31.8456 48.4262 31.1006Z" fill="#00A6A0"/>
<path d="M55.842 32.8231V36.8858H54.6659V35.9898C54.4621 36.3175 54.1747 36.585 53.8332 36.7648C53.4917 36.9446 53.1086 37.0302 52.723 37.0129C51.5013 37.0129 50.79 36.2918 50.79 35.2091C50.79 34.174 51.4655 33.6496 52.6416 33.4747L53.9686 33.2761C54.3183 33.2304 54.7136 33.1012 54.7136 32.5788C54.7136 32.0563 54.2825 31.7523 53.5733 31.7523C52.7687 31.7523 52.2919 32.1238 52.1986 32.7754H51.0344C51.1754 31.5656 52.0714 30.8325 53.5832 30.8325C55.0514 30.8325 55.842 31.508 55.842 32.8231ZM54.6779 34.3707V33.9396C54.3892 34.0274 54.0934 34.0899 53.7938 34.1263L53.1184 34.2316C52.3853 34.3469 52.0019 34.629 52.0019 35.1733C52.0019 35.6858 52.3615 35.9779 53.0131 35.9779C53.911 35.9779 54.6779 35.372 54.6779 34.3707V34.3707Z" fill="#00A6A0"/>
<path d="M62.7121 28.6094V36.8857H61.5201V35.8923C61.2181 36.4049 60.648 37.0088 59.4838 37.0088C57.9223 37.0088 56.9111 35.7871 56.9111 33.9017C56.9111 32.0502 58.0395 30.8284 59.5871 30.8284C60.6361 30.8284 61.1764 31.2933 61.4843 31.8059V28.6094H62.7121ZM61.5201 33.9057C61.5201 32.7137 60.8566 31.8913 59.8196 31.8913C58.7825 31.8913 58.1329 32.7058 58.1329 33.8938C58.1329 35.0818 58.7845 35.9182 59.8196 35.9182C60.8546 35.9182 61.5241 35.1037 61.5241 33.9057H61.5201Z" fill="#00A6A0"/>
<path d="M64.2129 28.4922H65.528V29.9126H64.2129V28.4922ZM64.2467 36.8857H65.4804V30.9496H64.2467V36.8857Z" fill="#00A6A0"/>
<path d="M71.6692 32.8231V36.8858H70.4931V35.9898C70.2891 36.3178 70.0013 36.5855 69.6595 36.7653C69.3177 36.9451 68.9341 37.0306 68.5482 37.0129C67.3264 37.0129 66.6172 36.2918 66.6172 35.2091C66.6172 34.174 67.2926 33.6496 68.4667 33.4747L69.7938 33.2761C70.1435 33.2304 70.5388 33.1012 70.5388 32.5788C70.5388 32.0563 70.1097 31.7523 69.3985 31.7523C68.6038 31.7523 68.1191 32.1238 68.0257 32.7754H66.8615C67.0006 31.5656 67.8966 30.8325 69.4104 30.8325C70.8746 30.8325 71.6692 31.508 71.6692 32.8231ZM70.505 34.3707V33.9396C70.2156 34.0273 69.9192 34.0898 69.619 34.1263L68.9455 34.2316C68.2125 34.3469 67.827 34.629 67.827 35.1733C67.827 35.6858 68.1886 35.9779 68.8402 35.9779C69.7422 35.9779 70.511 35.372 70.511 34.3707H70.505Z" fill="#00A6A0"/>
<path d="M78.2633 33.0436V36.8857H77.0335V33.1727C77.0335 32.4039 76.5806 31.9271 75.8574 31.9271C74.9376 31.9271 74.3675 32.6125 74.3675 33.715V36.8936H73.1338V30.9497H74.3675V31.8337C74.7747 31.1344 75.3111 30.8404 76.1833 30.8404C77.5183 30.8324 78.2633 31.5893 78.2633 33.0436Z" fill="#00A6A0"/>
<path d="M36.2622 20.3887H34.5358C31.834 20.3887 30.8347 19.3656 30.8347 16.4711V10.2152H28.4746V7.97625H30.8347V4.98439L33.4173 4.30298V7.97625H35.9701V10.2152H33.4153V16.5922C33.4153 17.6869 33.9021 18.1815 35.0225 18.1815H36.2622V20.3887Z" fill="#002B49"/>
<path d="M38.3057 2.84277H41.0552V5.81079H38.3057V2.84277ZM38.3792 20.3886H40.9618V7.97621H38.3792V20.3886Z" fill="#002B49"/>
<path d="M50.4008 20.3887H48.6744C45.9726 20.3887 44.9753 19.3656 44.9753 16.4711V10.2152H42.6152V7.97625H44.9753V4.98439L47.558 4.30298V7.97625H50.1128V10.2152H47.554V16.5922C47.554 17.6869 48.0407 18.1815 49.1612 18.1815H50.4008V20.3887Z" fill="#002B49"/>
<path d="M55.1969 20.3887H52.6143V3.08521H55.1969V20.3887Z" fill="#002B49"/>
<path d="M69.1151 14.9136H60.0621C60.0621 17.0989 61.5481 18.5154 63.7135 18.5154C65.1737 18.5154 66.2961 17.8578 66.7312 16.7373H68.994C68.386 19.0736 66.2683 20.657 63.5665 20.657C60.0382 20.657 57.6543 18.0743 57.6543 14.2064C57.6543 10.3384 60.0621 7.72998 63.5923 7.72998C66.9497 7.72998 69.1151 10.0901 69.1151 13.8389V14.9136ZM63.5427 9.87554C61.6196 9.87554 60.2568 11.0675 60.0879 13.0382H66.6577C66.6577 11.1172 65.4895 9.87554 63.5427 9.87554Z" fill="#002B49"/>
<path d="M82.6216 7.97632V19.6338C82.6216 23.2594 80.48 25.3295 76.7312 25.3295C73.3738 25.3295 71.2084 23.6985 70.8429 20.8993H73.3738C73.642 22.4886 74.8578 23.2833 76.7312 23.2833C79.0437 23.2833 80.188 22.1171 80.188 19.9755V17.7366C79.433 19.1968 77.8755 19.8524 76.1472 19.8524C72.7898 19.8524 70.7217 17.4923 70.7217 13.7932C70.7217 10.0941 72.7898 7.72998 76.1472 7.72998C78.0225 7.72998 79.5244 8.4849 80.188 9.84772V7.97235L82.6216 7.97632ZM80.0668 13.7693C80.0668 11.4092 78.7755 9.92321 76.7074 9.92321C74.6393 9.92321 73.3003 11.433 73.3003 13.7693C73.3003 16.1056 74.5896 17.6631 76.7074 17.6631C78.8251 17.6631 80.0668 16.1533 80.0668 13.7693Z" fill="#002B49"/>
<path d="M96.4188 14.9136H87.3637C87.3637 17.0989 88.8477 18.5154 91.0132 18.5154C92.4733 18.5154 93.5958 17.8578 94.0309 16.7373H96.3036C95.6956 19.0736 93.5779 20.657 90.8781 20.657C87.3478 20.657 84.9639 18.0743 84.9639 14.2064C84.9639 10.3384 87.3637 7.72998 90.896 7.72998C94.2534 7.72998 96.4188 10.0901 96.4188 13.8389V14.9136ZM90.8463 9.87554C88.9252 9.87554 87.5624 11.0675 87.3915 13.0382H93.9613C93.9613 11.1172 92.7932 9.87554 90.8463 9.87554Z" fill="#002B49"/>
<path d="M109.587 12.3568V20.3887H107.032V12.625C107.032 11.0198 106.084 10.0205 104.574 10.0205C102.651 10.0205 101.459 11.4568 101.459 13.7454V20.3887H98.8867V7.97626H101.469V9.82581C102.322 8.36564 103.44 7.73389 105.266 7.73389C108.025 7.72992 109.587 9.31922 109.587 12.3568Z" fill="#002B49"/>
<path d="M112.604 2.84277H115.354V5.81079H112.604V2.84277ZM112.676 20.3886H115.259V7.97621H112.676V20.3886Z" fill="#002B49"/>
<path d="M128.932 7.97632V20.3888H126.451V18.2948C125.745 19.8047 124.464 20.5338 122.897 20.5338C120.171 20.5338 118.371 18.7101 118.371 15.7659V7.97831H120.926V15.5275C120.926 17.3274 121.802 18.3266 123.409 18.3266C125.396 18.3266 126.377 16.6956 126.377 13.9938V7.97632H128.932Z" fill="#002B49"/>
<path d="M141.996 16.6161C141.996 19.0735 139.978 20.6569 136.766 20.6569C133.553 20.6569 131.439 19.0994 131.269 16.4711H133.851C134.02 17.8816 135.14 18.6365 136.917 18.6365C138.548 18.6365 139.499 18.0028 139.499 16.932C139.499 15.9387 138.671 15.7161 136.871 15.4003C134.487 14.9851 131.686 14.6454 131.686 11.6754C131.686 9.24174 133.561 7.73389 136.579 7.73389C139.644 7.73389 141.494 9.2914 141.688 11.7985H139.227C139.08 10.5072 138.18 9.77812 136.623 9.77812C135.115 9.77812 134.141 10.4834 134.141 11.5542C134.141 12.7223 135.284 12.917 137.109 13.209C139.469 13.5984 141.996 13.8666 141.996 16.6161Z" fill="#002B49"/>
</g>
<defs>
<clipPath id="clip0">
<rect width="142" height="38.7948" fill="white"/>
</clipPath>
</defs>
</svg>
