<svg width="32" height="32" viewBox="0 0 32 32" fill="none" xmlns="http://www.w3.org/2000/svg">
<path fill-rule="evenodd" clip-rule="evenodd" d="M25.9066 23.6191H21.8431V15.1397C21.8431 14.1464 21.5485 13.4509 20.2827 13.4509C18.184 13.4509 17.7796 15.1397 17.7796 15.1397V23.6191H13.7161V9.90479H17.7796V11.2155C18.9524 10.3682 20.3777 9.90914 21.8431 9.90675C23.1617 9.90675 25.9066 10.6669 25.9066 15.2592V23.6191ZM10.285 9.14284C9.23302 9.14284 8.38021 8.29002 8.38021 7.23808C8.38021 6.18613 9.23302 5.33332 10.285 5.33332C11.337 5.33332 12.1897 6.18613 12.1897 7.23808C12.1897 8.28996 11.3369 9.14284 10.285 9.14284ZM8.38021 23.6191H12.1897V9.90479H8.38021V23.6191ZM16 0C7.164 0 0 7.164 0 16C0 24.836 7.164 32 16 32C24.836 32 32 24.836 32 16C32 7.162 24.836 0 16 0Z" fill="#002B49"/>
</svg>
