<svg width="32" height="32" viewBox="0 0 32 32" fill="none" xmlns="http://www.w3.org/2000/svg">
<path fill-rule="evenodd" clip-rule="evenodd" d="M16 32C24.8366 32 32 24.8366 32 16C32 7.16344 24.8366 0 16 0C7.16344 0 0 7.16344 0 16C0 24.8366 7.16344 32 16 32ZM24.3571 10.6367C24.113 11.391 23.5927 12.0243 22.9146 12.4237C23.5777 12.346 24.2106 12.1722 24.7995 11.9152C24.3609 12.5632 23.8031 13.1327 23.1616 13.5885C23.1682 13.7262 23.1701 13.8658 23.1701 14.0063C23.1701 18.2764 19.87 23.2 13.8314 23.2C11.9775 23.2 10.2523 22.6648 8.79948 21.7486C9.05586 21.7791 9.31788 21.793 9.58272 21.793C11.1201 21.793 12.5353 21.2772 13.6595 20.41C12.2226 20.3851 11.0102 19.4495 10.5932 18.1664C10.7923 18.2043 10.9989 18.2237 11.2102 18.2237C11.5108 18.2237 11.8 18.1858 12.0761 18.11C10.5726 17.8141 9.44185 16.5079 9.44185 14.9419V14.9021C9.88512 15.1425 10.3913 15.2895 10.9294 15.3061C10.0485 14.7255 9.46908 13.7364 9.46908 12.6159C9.46908 12.0243 9.63061 11.4696 9.91329 10.9908C11.5333 12.9469 13.9516 14.2319 16.6788 14.3669C16.6225 14.1311 16.5952 13.8843 16.5952 13.631C16.5952 11.8468 18.064 10.4 19.8765 10.4C20.8213 10.4 21.675 10.792 22.2723 11.4206C23.0208 11.2755 23.7223 11.0074 24.3571 10.6367Z" fill="#002B49"/>
</svg>
