<svg width="32" height="32" viewBox="0 0 32 32" fill="none" xmlns="http://www.w3.org/2000/svg">
<path fill-rule="evenodd" clip-rule="evenodd" d="M16 32C24.8366 32 32 24.8366 32 16C32 7.16344 24.8366 0 16 0C7.16344 0 0 7.16344 0 16C0 24.8366 7.16344 32 16 32ZM15.9942 9.59993H16.0018H16.0019C16.0019 9.59993 19.6963 9.59993 22.1592 9.78403C22.1931 9.78821 22.2309 9.79201 22.2722 9.79617C22.6502 9.83417 23.3193 9.90144 23.9226 10.5549C24.4504 11.1072 24.6223 12.3612 24.6223 12.3612C24.7317 13.3392 24.7904 14.3224 24.7981 15.3067V16.6874C24.7904 17.6717 24.7317 18.6549 24.6223 19.6328C24.6223 19.6328 24.4504 20.8868 23.9226 21.4392C23.3194 22.0925 22.6504 22.1598 22.2724 22.1979L22.2718 22.1979C22.2306 22.2021 22.1929 22.2059 22.1592 22.21C19.6963 22.3941 15.9981 22.3999 15.9981 22.3999C15.9981 22.3999 11.4221 22.3567 10.0141 22.2171C9.94716 22.2041 9.86598 22.194 9.77405 22.1826C9.32797 22.1272 8.62856 22.0402 8.07344 21.4392C7.54576 20.8869 7.37405 19.6328 7.37405 19.6328C7.26447 18.655 7.20572 17.6718 7.19805 16.6876V15.3069C7.20572 14.3226 7.26447 13.3394 7.37405 12.3615C7.37405 12.3615 7.5457 11.1072 8.07339 10.5549C8.67687 9.90153 9.34566 9.83423 9.72366 9.7962C9.76503 9.79203 9.80291 9.78822 9.83685 9.78403C12.2998 9.59993 15.9942 9.59993 15.9942 9.59993ZM14.3986 13.6001L19.1986 15.952L14.3986 18.4001V13.6001Z" fill="#002B49"/>
</svg>
